<?xml version="1.0" encoding="utf-8"?>
<!-- Generator: Adobe Illustrator 16.0.4, SVG Export Plug-In . SVG Version: 6.00 Build 0)  -->
<!DOCTYPE svg PUBLIC "-//W3C//DTD SVG 1.1//EN" "http://www.w3.org/Graphics/SVG/1.1/DTD/svg11.dtd">
<svg version="1.1" id="Layer_1" xmlns="http://www.w3.org/2000/svg" xmlns:xlink="http://www.w3.org/1999/xlink" x="0px" y="0px"
	 width="180px" height="38.625px" viewBox="0 0 180 38.625" enable-background="new 0 0 180 38.625" xml:space="preserve">
<path fill="#CC0000" d="M23.443,38.307c-1.319-0.964-1.497-2.228-1.727-3.827c-0.149-1.066-0.341-2.396-0.903-4.07
	c-0.196-0.571-0.421-1.151-0.678-1.703c-0.098-0.149-0.197-0.271-0.295-0.374c-1.053-1.104-1.75-2.761-2.157-3.978
	c-0.585-1.048-0.969-1.806-1.245-2.451c-0.458-0.655-0.917-1.423-0.758-2.171c0.061-0.271,0.229-0.655,0.707-0.936
	c1.16-0.702,2.728-3.808,3.762-5.867c0.323-0.632,0.626-1.235,0.894-1.731c0.472-0.87,0.767-1.291,1.057-1.511
	c0.487-0.365,1.02-0.584,1.595-0.664l0.089-0.009l0.089,0.009l0.089-0.009l0.089,0.009c0.575,0.075,1.113,0.299,1.6,0.664
	c0.29,0.225,0.589,0.65,1.057,1.511c0.262,0.491,0.562,1.081,0.88,1.708c1.039,2.063,2.61,5.179,3.78,5.89
	c0.472,0.281,0.641,0.674,0.702,0.936c0.154,0.748-0.295,1.497-0.753,2.161c-0.276,0.655-0.678,1.441-1.258,2.471
	c-0.337,1.011-1.039,2.798-2.143,3.968c-0.112,0.112-0.22,0.243-0.323,0.402c-0.243,0.542-0.454,1.076-0.646,1.646
	c-0.576,1.693-0.777,3.032-0.936,4.107c-0.239,1.591-0.431,2.854-1.694,3.809l-0.435,0.328L23.443,38.307z"/>
<path fill="#CC0000" d="M52.385,11.03h2.98v22.813h-2.98V11.03z M66.791,20.79v-9.76h2.98v22.813h-2.98V22.988H56.559
	c0.229-0.607,0.552-1.122,0.959-1.553s0.978-0.646,1.708-0.646H66.791z"/>
<path fill="#CC0000" d="M96.243,33.843h-2.979l-5.746-16.225h3.139l4.015,12.651l0.225,0.786l0.215-0.786l2.863-7.654
	c0.225,0.243,0.431,0.571,0.608,0.974c0.178,0.393,0.3,0.832,0.374,1.3c0.075,0.469,0.094,0.964,0.065,1.479
	c-0.027,0.506-0.131,1.021-0.299,1.517L96.243,33.843z"/>
<polygon fill="#CC0000" points="103.654,33.843 97.937,17.618 101.081,17.618 105.095,30.269 105.31,31.055 105.535,30.269 
	109.521,17.618 112.497,17.618 106.789,33.843 "/>
<rect x="114.864" y="10.057" fill="#CC0000" width="2.91" height="23.786"/>
<path fill="#CC0000" d="M123.614,23.335l6.119,10.508h-3.322l-4.65-8.468l-2.414,2.732c-0.121-0.318-0.206-0.665-0.233-1.039
	c-0.028-0.374-0.01-0.768,0.065-1.179c0.074-0.402,0.187-0.814,0.355-1.227c0.168-0.402,0.402-0.776,0.692-1.113l5.118-5.932h3.453
	L123.614,23.335z"/>
<path fill="#CC0000" d="M134.383,29.427c0,0.729,0.15,1.328,0.459,1.787c0.299,0.458,0.786,0.683,1.459,0.683
	c0.244,0,0.459-0.019,0.637-0.074c0.178-0.047,0.421-0.112,0.711-0.169c0.608-0.149,1.17-0.159,1.694-0.037
	c0.523,0.131,1.001,0.421,1.44,0.88c-1.104,0.673-2.04,1.113-2.807,1.338c-0.758,0.215-1.432,0.327-1.993,0.327
	c-0.627,0-1.217-0.075-1.76-0.233c-0.542-0.159-1.02-0.44-1.44-0.833c-0.421-0.394-0.749-0.917-0.992-1.554
	c-0.234-0.636-0.355-1.45-0.355-2.433V17.618h2.947V29.427z"/>
<path fill="#CC0000" d="M142.861,33.843c-0.505-0.562-0.832-1.123-0.991-1.675s-0.234-1.142-0.234-1.769V17.618h2.92v12.277
	c0,0.58,0.037,1.207,0.112,1.862c0.065,0.664,0.196,1.356,0.384,2.086H142.861z"/>
<path fill="#CC0000" d="M151.788,33.843h-2.854V10.057h2.854V33.843z"/>
<path fill="#CC0000" d="M172.963,17.618c0.337,0.355,0.571,0.749,0.711,1.151c0.132,0.402,0.253,0.86,0.356,1.366v0.562l0.252-0.562
	c0.421-0.796,1.011-1.451,1.76-1.965c0.758-0.515,1.562-0.767,2.414-0.767c0.421,0,0.936,0.084,1.544,0.252l-0.384,2.452
	c-0.327-0.094-0.617-0.141-0.861-0.168c-0.243-0.02-0.448-0.02-0.646-0.02c-0.477,0-0.954,0.094-1.44,0.291
	c-0.478,0.196-0.908,0.515-1.282,0.926c-0.384,0.421-0.692,0.964-0.927,1.628c-0.243,0.674-0.364,1.479-0.364,2.424v8.655h-2.789
	V23.119c0-0.973-0.047-1.946-0.131-2.919c-0.084-0.992-0.206-1.843-0.374-2.583H172.963z"/>
<path fill="#CC0000" d="M46.383,26.572c-0.346,4.155-4.042,7.552-8.211,7.552H9.744c-4.168,0-7.865-3.396-8.211-7.552L0.027,8.564
	C-0.324,4.41,2.806,1.008,6.975,1.008h33.967c4.169,0,7.294,3.401,6.948,7.556L46.383,26.572z"/>
<g>
	<path fill="#FFDE17" d="M23.935,26.854c-8.136-0.59-4.375-3.453-8.005-3.827c-3.846-0.394-4.669-0.075-5.918,0
		c-1.25,0.074-0.772-0.412-0.772-0.412s2.606-1.226,5.203-3.275c1.689-1.328,3.34-2.69,4.042-5.287
		c1.633-6.068,3.144-7.981,5.474-7.785c2.33-0.196,3.836,1.717,5.474,7.785c0.702,2.597,2.354,3.958,4.042,5.287
		c2.596,2.05,5.198,3.275,5.198,3.275s0.482,0.486-0.772,0.412c-1.249-0.075-2.115-0.702-5.918,0c-3.907,0.72,0.136,3.237-8,3.827
		h-0.023H23.935z"/>
</g>
<path fill="#414042" d="M5.225,14.165c0,0-1.937-3.266-0.383-5.432c0.51-0.702,2.601-0.847,4.089-0.557
	c0.978,0.188,2.049,0.487,3.406,1.605c0.243,0.201,0.252,0.955,0.341,0.594c0.239-0.964-2.138-2.414-3.121-2.723
	C6.479,6.674,4.289,8.349,4.238,8.569c-0.094,0.412-0.253,2.475-0.117,3.448C4.205,12.616,5.225,14.165,5.225,14.165z"/>
<path fill="#414042" d="M30.667,21.538c-0.318,0.758-0.791,1.647-1.287,2.526c-0.318,0.982-0.982,2.686-2.002,3.753
	c-0.159,0.178-0.304,0.364-0.436,0.561c-0.281,0.618-0.505,1.208-0.692,1.76c-1.427,4.22-0.618,6.241-2.376,7.57
	c-1.82-1.329-0.95-3.341-2.363-7.533c-0.192-0.57-0.431-1.179-0.725-1.815c0,0-0.005-0.009-0.005-0.019
	c-0.126-0.187-0.257-0.365-0.412-0.523c-1.02-1.076-1.689-2.789-2.007-3.762c-0.491-0.88-0.959-1.75-1.272-2.508
	c-0.589-0.843-1.062-1.685-0.328-2.124c1.712-1.03,3.687-5.582,4.932-7.875c0.346-0.646,0.636-1.114,0.851-1.272
	c0.417-0.313,0.842-0.468,1.245-0.52c0.028,0,0.056,0.005,0.084,0.009c0.028-0.004,0.056-0.009,0.084-0.009
	c0.407,0.052,0.833,0.206,1.25,0.52c0.21,0.159,0.5,0.627,0.851,1.272c1.24,2.292,3.219,6.845,4.927,7.875
	C31.72,19.863,31.257,20.696,30.667,21.538z"/>
<path fill="#FFDE17" d="M14.563,11.778c0,0-0.618,0.814-0.674,1.067c-0.056,0.253-3.191,6.7-9.095,1.843c0,0-1.914-2.358-1.118-5.38
	c0.065-0.252-0.08-0.833,0.107-1.024c2.7-2.723,9.086-1.067,10.246,1.698C14.212,10.417,14.563,11.778,14.563,11.778z"/>
<path fill="#414042" d="M5.112,14.286c0,0-2.26-3.448-0.444-5.736c0.594-0.744,3.037-0.894,4.777-0.589
	c1.137,0.196,2.391,0.515,3.972,1.693c0.29,0.22,0.295,1.011,0.402,0.632c0.281-1.015-2.494-2.55-3.649-2.877
	C6.582,6.379,4.022,8.143,3.961,8.382c-0.107,0.431-0.295,2.611-0.136,3.64C3.924,12.649,5.112,14.286,5.112,14.286z"/>
<path fill="#414042" d="M12.313,11.128c0,1.469-1.156,2.657-2.583,2.657c-1.432,0-2.587-1.188-2.587-2.657
	c0-1.464,1.156-2.653,2.587-2.653C11.157,8.476,12.313,9.664,12.313,11.128z"/>
<path opacity="0.8" fill="#F1F2F2" d="M4.396,10.993c0.276-5.886,7.561-0.833,7.355-0.707c-1.193,0.73-3.182,0.646-3.836,0.267
	c-0.65-0.384-1.516-0.627-2.171-0.323C5.094,10.534,4.373,11.428,4.396,10.993z"/>
<path fill="#FFDE17" d="M33.189,11.778c0,0,0.618,0.814,0.674,1.067c0.056,0.253,3.191,6.7,9.091,1.843c0,0,1.918-2.358,1.123-5.38
	c-0.065-0.252,0.08-0.833-0.112-1.024c-2.695-2.723-9.081-1.067-10.242,1.698C33.54,10.417,33.189,11.778,33.189,11.778z"/>
<path fill="#414042" d="M42.64,14.286c0,0,2.26-3.448,0.439-5.736c-0.589-0.744-3.032-0.894-4.772-0.589
	c-1.137,0.196-2.391,0.515-3.972,1.693c-0.29,0.22-0.295,1.011-0.402,0.632c-0.281-1.015,2.494-2.55,3.645-2.877
	c3.593-1.029,6.147,0.734,6.208,0.973c0.112,0.431,0.299,2.611,0.136,3.64C43.824,12.649,42.64,14.286,42.64,14.286z"/>
<path fill="#414042" d="M35.435,11.128c0,1.469,1.161,2.657,2.587,2.657c1.427,0,2.587-1.188,2.587-2.657
	c0-1.464-1.16-2.653-2.587-2.653C36.595,8.476,35.435,9.664,35.435,11.128z"/>
<path opacity="0.9" fill="#F1F2F2" d="M43.356,10.993c-0.276-5.886-7.561-0.833-7.355-0.707c1.193,0.73,3.181,0.646,3.832,0.267
	c0.655-0.384,1.521-0.627,2.176-0.323C42.659,10.534,43.375,11.428,43.356,10.993z"/>
<path opacity="0.8" fill="#F1F2F2" d="M8.453,14.576c-0.388,0.627-1.914,0-2.503-0.8c-0.439-0.594-0.575-0.847-0.187-1.474
	s0.786-0.786,1.413-0.398S8.836,13.949,8.453,14.576z"/>
<path fill="#CC0000" d="M80.818,31.373c-0.721,0.355-1.437,0.523-2.147,0.523c-0.795,0-1.422-0.233-1.886-0.701
	c-0.458-0.468-0.688-1.029-0.688-1.676c0-0.299,0.042-0.58,0.122-0.87c0.084-0.28,0.252-0.542,0.505-0.776
	c0.252-0.243,0.589-0.458,1.02-0.646c0.431-0.188,0.987-0.337,1.68-0.439c0.417-0.066,0.763-0.188,1.034-0.375
	c0.271-0.196,0.496-0.402,0.674-0.646s0.304-0.486,0.379-0.739c0.07-0.253,0.131-0.468,0.173-0.655
	c-1.614,0.188-2.971,0.422-4.08,0.702c-1.109,0.281-2.007,0.637-2.686,1.048c-0.678,0.421-1.17,0.927-1.474,1.507
	c-0.304,0.59-0.454,1.282-0.454,2.077c0,0.627,0.117,1.207,0.36,1.759c0.239,0.543,0.589,1.011,1.053,1.404
	c0.458,0.402,1.01,0.721,1.661,0.945c0.65,0.233,1.38,0.346,2.194,0.346c0.758,0,1.474-0.121,2.152-0.365
	c0.678-0.233,1.282-0.654,1.506-1.057c0.379-0.702,0.683-3.098,0.683-3.098C81.992,30.437,81.543,31.018,80.818,31.373z"/>
<path fill="#CC0000" d="M85.903,31.7c-0.093-0.889-0.14-1.965-0.14-3.219V23.99c0-2.134-0.552-3.78-1.647-4.941
	c-1.1-1.161-2.667-1.741-4.693-1.741c-0.692,0-1.427,0.065-2.213,0.206c-0.786,0.14-1.689,0.421-2.714,0.861l0.721,1.946
	c0.753-0.271,1.408-0.468,1.96-0.58c0.557-0.121,1.113-0.178,1.68-0.178c1.422,0,2.438,0.394,3.046,1.18
	c0.604,0.786,0.908,1.796,0.908,3.031c0,0,0,4.398,0,5.867l0,0c0,0,0.061,1.993,0.206,2.639c0.075,0.337,0.262,0.618,0.421,0.889
	c0.168,0.29,0.398,0.515,0.693,0.674h2.133C86.119,33.301,85.997,32.589,85.903,31.7z"/>
<path fill="#CC0000" d="M162.38,31.373c-0.721,0.355-1.432,0.523-2.143,0.523c-0.796,0-1.423-0.233-1.891-0.701
	c-0.458-0.468-0.683-1.029-0.683-1.676c0-0.299,0.037-0.58,0.121-0.87c0.085-0.28,0.253-0.542,0.506-0.776
	c0.253-0.243,0.59-0.458,1.02-0.646c0.431-0.188,0.982-0.337,1.676-0.439c0.421-0.066,0.767-0.188,1.038-0.375
	c0.271-0.196,0.496-0.402,0.674-0.646s0.3-0.486,0.374-0.739c0.075-0.253,0.131-0.468,0.178-0.655
	c-1.609,0.188-2.976,0.422-4.079,0.702c-1.114,0.281-2.003,0.637-2.686,1.048c-0.684,0.421-1.17,0.927-1.479,1.507
	c-0.3,0.59-0.449,1.282-0.449,2.077c0,0.627,0.121,1.207,0.355,1.759c0.243,0.543,0.589,1.011,1.058,1.404
	c0.458,0.402,1.01,0.721,1.656,0.945c0.654,0.233,1.385,0.346,2.198,0.346c0.758,0,1.47-0.121,2.152-0.365
	c0.674-0.233,1.282-0.654,1.507-1.057c0.374-0.702,0.683-3.098,0.683-3.098C163.559,30.437,163.111,31.018,162.38,31.373z"/>
<path fill="#CC0000" d="M167.471,31.7c-0.094-0.889-0.141-1.965-0.141-3.219V23.99c0-2.134-0.552-3.78-1.646-4.941
	c-1.104-1.161-2.667-1.741-4.697-1.741c-0.693,0-1.423,0.065-2.209,0.206c-0.786,0.14-1.693,0.421-2.714,0.861l0.721,1.946
	c0.749-0.271,1.403-0.468,1.956-0.58c0.562-0.121,1.113-0.178,1.685-0.178c1.422,0,2.433,0.394,3.041,1.18s0.907,1.796,0.907,3.031
	c0,0,0,4.398,0,5.867l0,0c0,0,0.065,1.993,0.206,2.639c0.075,0.337,0.262,0.618,0.431,0.889c0.159,0.29,0.393,0.515,0.683,0.674
	h2.134C167.686,33.301,167.565,32.589,167.471,31.7z"/>
<g>
	<path opacity="0.5" fill="#00FDFF" d="M48.773,9.505c0.749,5.582-3.172,10.714-8.753,11.453
		c-5.577,0.739-10.705-3.172-11.449-8.758c-0.744-5.577,3.177-10.705,8.753-11.449C42.907,0.007,48.034,3.928,48.773,9.505z"/>
	<path opacity="0.5" fill="#FFFFFF" d="M47.974,9.322c0.665,4.978-2.835,9.549-7.813,10.223c-4.978,0.655-9.554-2.84-10.213-7.818
		c-0.665-4.978,2.831-9.554,7.809-10.218C42.733,0.845,47.309,4.344,47.974,9.322z"/>
	<path fill="#414042" d="M40.109,21.613c-5.933,0.795-11.402-3.397-12.193-9.325c-0.791-5.933,3.392-11.402,9.325-12.192
		c5.928-0.791,11.402,3.392,12.192,9.324C50.224,15.348,46.042,20.817,40.109,21.613z M37.414,1.406
		c-5.212,0.697-8.88,5.497-8.188,10.709c0.692,5.208,5.498,8.88,10.709,8.188c5.208-0.701,8.88-5.497,8.183-10.709
		C47.426,4.386,42.621,0.713,37.414,1.406z"/>
	<path fill="#414042" d="M48.338,18.31c-0.875,0.112-1.684-0.505-1.801-1.375c-0.112-0.88,0.505-1.685,1.375-1.801
		c0.88-0.117,1.685,0.5,1.801,1.375C49.831,17.384,49.213,18.198,48.338,18.31z M48.011,15.863
		c-0.473,0.061-0.805,0.496-0.744,0.973c0.065,0.473,0.5,0.8,0.973,0.744c0.477-0.065,0.81-0.5,0.749-0.973
		C48.923,16.13,48.488,15.797,48.011,15.863z"/>
	<path opacity="0.8" fill="#FFFFFF" d="M39.95,2.07c-1.067,0.599,2.681,1.502,4.632,4.239c1.951,2.737,1.937,5.568,2.321,5.287
		c0.561-0.412,1.001-3.458-0.95-6.195C44.006,2.665,40.535,1.743,39.95,2.07z"/>
</g>
</svg>
