<?xml version="1.0" encoding="utf-8"?>
<!-- Generator: Adobe Illustrator 16.0.4, SVG Export Plug-In . SVG Version: 6.00 Build 0)  -->
<!DOCTYPE svg PUBLIC "-//W3C//DTD SVG 1.1//EN" "http://www.w3.org/Graphics/SVG/1.1/DTD/svg11.dtd">
<svg version="1.1" id="Layer_1" xmlns="http://www.w3.org/2000/svg" xmlns:xlink="http://www.w3.org/1999/xlink" x="0px" y="0px"
	 width="118.983px" height="12.055px" viewBox="0 0 118.983 12.055" enable-background="new 0 0 118.983 12.055"
	 xml:space="preserve">
<g>
	<path fill="#FFFFFF" d="M7.028,12.055V7.398H3.347v4.656h-3.34V0.244h3.34v4.303h3.68V0.244h3.34v11.811H7.028z"/>
	<path fill="#FFFFFF" d="M23.378,12.055l-0.64-2.075h-3.544l-0.642,2.075h-3.51l4.287-11.811h3.308l4.286,11.811H23.378z
		 M21.724,6.605c-0.421-1.52-0.607-2.16-0.76-2.954c-0.152,0.793-0.339,1.452-0.76,2.954L19.986,7.38h1.957L21.724,6.605z"/>
	<path fill="#FFFFFF" d="M41.415,12.055h-3.022l-0.539-2.563c-0.388-1.823-0.743-4.034-0.809-4.895
		c-0.069,0.861-0.421,3.072-0.812,4.895l-0.54,2.563h-2.988L29.887,0.244h3.376l0.32,1.973c0.27,1.671,0.591,3.73,0.708,5.13
		c0.135-1.385,0.507-3.426,0.878-5.114l0.405-1.991h3.003l0.405,1.991c0.371,1.688,0.743,3.729,0.877,5.114
		c0.118-1.4,0.439-3.46,0.709-5.13l0.32-1.973h3.343L41.415,12.055z"/>
	<path fill="#FFFFFF" d="M56.077,12.055l-2.465-5.026l-1.215,1.468v3.559h-3.342V0.244h3.342v1.383c0,0.996-0.017,2.06-0.051,2.92
		c0.489-0.776,1.52-2.143,2.278-3.105l0.946-1.197h3.982l-3.562,4.167l3.967,7.644H56.077z"/>
	<path fill="#FFFFFF" d="M69.12,12.242c-2.969,0-5.147-1.485-5.147-5.231V0.244h3.342v6.767c0,1.449,0.574,2.344,1.856,2.344
		c1.283,0,1.822-0.895,1.822-2.344V0.244h3.341v6.767C74.337,10.757,72.092,12.242,69.12,12.242z"/>
	<path fill="#FFFFFF" d="M79.65,12.055V0.244h3.309v8.959h5.229v2.852H79.65z"/>
	<path fill="#FFFFFF" d="M100.641,12.055l-0.64-2.075h-3.545l-0.643,2.075h-3.51l4.287-11.811h3.308l4.287,11.811H100.641z
		 M98.989,6.605c-0.421-1.52-0.608-2.16-0.761-2.954c-0.151,0.793-0.338,1.452-0.759,2.954l-0.22,0.774h1.957L98.989,6.605z"/>
	<path fill="#FFFFFF" d="M115.323,12.055l-1.924-3.981h-1.316v3.981h-3.223V0.244h5.28c2.769,0,4.607,1.046,4.607,3.847
		c0,1.772-0.828,2.868-2.127,3.459l2.363,4.505H115.323z M114.055,2.909h-1.974V5.49h1.923c1.064,0,1.487-0.473,1.487-1.316
		C115.491,3.433,115.086,2.909,114.055,2.909z"/>
</g>
</svg>
